<?xml version="1.0" standalone="no"?>
<!DOCTYPE svg PUBLIC "-//W3C//DTD SVG 20010904//EN"
 "http://www.w3.org/TR/2001/REC-SVG-20010904/DTD/svg10.dtd">
<svg version="1.0" xmlns="http://www.w3.org/2000/svg"
 width="265.000000pt" height="265.000000pt" viewBox="0 0 265.000000 265.000000"
 preserveAspectRatio="xMidYMid meet">
<metadata>
Created by potrace 1.11, written by Peter Selinger 2001-2013
</metadata>
<g transform="translate(0.000000,265.000000) scale(0.100000,-0.100000)"
fill="#000000" stroke="none">
<path d="M1759 2306 c-30 -34 -106 -136 -169 -228 l-113 -168 -89 -52 c-88
-52 -91 -56 -222 -229 -130 -172 -193 -265 -184 -274 13 -14 108 82 227 229
128 157 139 168 221 215 47 28 93 58 101 68 67 78 302 486 287 497 -1 2 -28
-24 -59 -58z"/>
<path d="M1187 2260 c-38 -11 -94 -55 -102 -79 -3 -10 -35 -36 -72 -57 -91
-54 -171 -144 -219 -248 l-39 -84 -65 5 c-133 10 -297 -46 -383 -132 -79 -79
-120 -175 -137 -324 -7 -66 -13 -84 -39 -111 -64 -70 -60 -184 10 -248 14 -14
23 -41 30 -88 21 -150 62 -247 142 -332 60 -62 112 -96 200 -126 61 -20 77
-21 824 -24 675 -2 769 -1 824 13 171 45 296 157 355 319 34 94 39 157 20 240
-33 141 -125 271 -232 328 -36 19 -46 30 -55 63 -31 116 -149 174 -255 126
-95 -43 -136 -165 -86 -256 16 -30 64 -72 95 -84 33 -13 103 -13 132 -2 41 17
134 -49 170 -119 20 -40 25 -63 24 -122 -1 -129 -48 -206 -155 -259 l-69 -34
-743 -3 c-840 -3 -811 -5 -897 70 -53 46 -100 134 -111 204 -6 39 -3 45 34 82
66 66 77 153 30 230 -11 18 -32 40 -45 49 -24 16 -25 21 -20 76 11 118 90 221
190 248 75 20 174 13 230 -15 67 -35 117 -34 159 3 32 29 33 31 34 119 0 78 4
95 28 136 16 27 48 60 78 80 l50 34 40 -20 c52 -27 132 -21 183 13 41 28 85
108 85 153 -1 40 -31 105 -61 133 -50 46 -119 62 -182 43z m118 -104 c87 -87
-25 -222 -123 -149 -76 57 -37 173 58 173 30 0 47 -6 65 -24z m830 -749 c18
-15 28 -36 32 -64 5 -37 2 -45 -25 -73 -53 -52 -134 -38 -162 29 -38 93 79
174 155 108z m-1803 -226 c28 -24 33 -36 32 -71 -4 -131 -194 -127 -194 5 0
36 16 62 48 79 42 23 78 19 114 -13z"/>
<path d="M1888 1978 c-68 -79 -152 -177 -187 -219 -58 -70 -69 -78 -152 -113
-87 -37 -93 -42 -219 -175 -120 -126 -197 -217 -222 -264 -30 -57 150 90 289
236 87 92 98 99 184 135 91 37 93 38 168 132 157 194 209 267 245 338 20 39
32 72 27 72 -5 0 -65 -64 -133 -142z"/>
<path d="M2053 1803 c-54 -60 -142 -160 -195 -223 -97 -114 -98 -115 -184
-150 -85 -35 -88 -37 -233 -188 -134 -140 -224 -262 -207 -279 5 -5 217 194
336 316 34 35 68 56 137 84 l92 38 138 172 c76 94 143 180 150 191 20 34 72
146 68 146 -2 0 -48 -48 -102 -107z"/>
</g>
</svg>
